<svg xmlns="http://www.w3.org/2000/svg" xmlns:xlink="http://www.w3.org/1999/xlink" width="140.509" height="140.498" viewBox="0 0 140.509 140.498">
  <defs>
    <linearGradient id="linear-gradient" y1="0.5" x2="1" y2="0.5" gradientUnits="objectBoundingBox">
      <stop offset="0" stop-color="#bc2340"/>
      <stop offset="1" stop-color="#581449"/>
    </linearGradient>
    <linearGradient id="linear-gradient-2" x1="0" y1="0.499" x2="1" y2="0.499" xlink:href="#linear-gradient"/>
    <linearGradient id="linear-gradient-3" x1="0" y1="0.5" x2="1" y2="0.5" xlink:href="#linear-gradient"/>
    <linearGradient id="linear-gradient-5" x1="0" y1="0.5" x2="1" y2="0.5" xlink:href="#linear-gradient"/>
    <linearGradient id="linear-gradient-6" x1="-0.002" y1="0.499" x2="0.997" y2="0.499" xlink:href="#linear-gradient"/>
    <linearGradient id="linear-gradient-7" x1="0" y1="0.496" x2="1" y2="0.496" xlink:href="#linear-gradient"/>
    <linearGradient id="linear-gradient-8" x1="0.001" y1="0.501" x2="1.001" y2="0.501" xlink:href="#linear-gradient"/>
    <linearGradient id="linear-gradient-9" x1="0" y1="0.5" x2="1" y2="0.5" xlink:href="#linear-gradient"/>
    <linearGradient id="linear-gradient-10" x1="0" y1="0.497" x2="0.998" y2="0.497" xlink:href="#linear-gradient"/>
    <linearGradient id="linear-gradient-11" x1="-0.001" y1="0.503" x2="1.003" y2="0.503" xlink:href="#linear-gradient"/>
    <linearGradient id="linear-gradient-12" x1="-0.005" y1="0.5" x2="1" y2="0.5" xlink:href="#linear-gradient"/>
    <linearGradient id="linear-gradient-13" x1="0" y1="0.503" x2="1" y2="0.503" xlink:href="#linear-gradient"/>
    <linearGradient id="linear-gradient-14" x1="-0.001" y1="0.501" x2="1" y2="0.501" xlink:href="#linear-gradient"/>
    <linearGradient id="linear-gradient-15" x1="-0.003" y1="0.501" x2="0.996" y2="0.501" xlink:href="#linear-gradient"/>
  </defs>
  <g id="abt-icon-1" transform="translate(0 0)">
    <g id="Layer_1" data-name="Layer 1" transform="translate(0 0)">
      <path id="Path_75" data-name="Path 75" d="M142.688,150.252a4.339,4.339,0,0,1-3.1-1.287l-13-12.994-12.994,12.994a4.4,4.4,0,0,1-6.209-6.227l16.1-16.1a4.394,4.394,0,0,1,6.215,0l16.1,16.1a4.394,4.394,0,0,1-3.1,7.5Z" transform="translate(-41.701 -49.271)" fill="url(#linear-gradient)"/>
      <path id="Path_76" data-name="Path 76" d="M137.018,191.782a4.388,4.388,0,0,1-4.388-4.388V134.7a4.394,4.394,0,0,1,8.782,0v52.694A4.394,4.394,0,0,1,137.018,191.782Z" transform="translate(-52.133 -51.284)" fill="url(#linear-gradient-2)"/>
      <path id="Path_77" data-name="Path 77" d="M184.47,215.367a4.364,4.364,0,0,1-3.107-1.287l-16.1-16.1a4.39,4.39,0,1,1,6.209-6.209l13,12.982,12.994-12.994a4.39,4.39,0,0,1,6.209,6.209l-16.1,16.1A4.4,4.4,0,0,1,184.47,215.367Z" transform="translate(-64.456 -74.869)" fill="url(#linear-gradient-3)"/>
      <path id="Path_78" data-name="Path 78" d="M194.894,186.962a4.394,4.394,0,0,1-4.394-4.394V129.88a4.394,4.394,0,0,1,8.782,0v52.687a4.394,4.394,0,0,1-4.388,4.394Z" transform="translate(-74.88 -49.389)" fill="url(#linear-gradient-2)"/>
      <path id="Path_79" data-name="Path 79" d="M49.768,122.933a4.855,4.855,0,0,1-.838-.079c-.5-.1-48.931-10.1-48.931-64.729V21.947a4.382,4.382,0,0,1,2.8-4.091L48.172.291a4.455,4.455,0,0,1,3.168,0L96.714,17.856a4.388,4.388,0,0,1,2.822,4.091V58.126c0,1.639-.061,3.211-.121,4.789a4.443,4.443,0,0,1-4.552,4.248,4.388,4.388,0,0,1-4.218-4.546c.049-1.475.109-2.938.109-4.461v-33.2L49.768,9.1,8.782,24.957V58.126c0,44.257,34.862,54.472,40.962,55.916a52.865,52.865,0,0,0,8.521-2.974A4.394,4.394,0,1,1,61.81,119.1a57.658,57.658,0,0,1-11.265,3.757,4.437,4.437,0,0,1-.807.073Z" transform="translate(0 0)" fill="url(#linear-gradient-5)"/>
      <path id="Path_80" data-name="Path 80" d="M99.981,47.884c-.771,0-1.36.03-1.942,0-1.147-.079-1.93-.649-1.942-1.821a1.821,1.821,0,0,1,2-2.021c2.549-.061,5.1-.055,7.647,0a1.821,1.821,0,0,1,1.942,1.881,1.864,1.864,0,0,1-2,1.954h-1.73v4.139A18,18,0,0,1,112.5,55.47a17.6,17.6,0,1,1-13.9-3.192c1.147-.218,1.523-.607,1.42-1.73A23.845,23.845,0,0,1,99.981,47.884ZM110.3,80.713c-1.293-1.457-2.931-2.549-1.463-4.127,1.639-1.748,2.786.121,4.285,1.3.892-2.2,1.687-4.17,2.586-6.385-1.93-.158-3.89.17-3.951-1.93-.067-2.306,2.106-1.863,3.957-2.227l-2.634-6.185c-2.428,2.021-3.314,2.325-4.164,1.4-1.633-1.766.206-2.81,1.25-4.352l-6.245-2.561c-.194,1.869.188,3.8-1.936,3.909-2.464.121-1.821-2.082-2.24-3.921l-6.227,2.64c1.141,1.438,2.822,2.428,1.457,4.018-1.651,1.906-2.846-.1-4.394-1.092l-2.519,6.069c1.675.522,3.818-.146,3.878,2.149.067,2.428-2.191,1.712-3.9,2.264l2.592,6.069c2.634-1.966,3.429-2.2,4.249-1.214,1.505,1.784-.34,2.725-1.171,3.988a11.9,11.9,0,0,0,6.179,2.428c.206-1.548-.322-3.52,1.93-3.557,2.428-.042,1.821,2.13,2.227,3.884Z" transform="translate(-33.153 -17.295)" fill="url(#linear-gradient-6)"/>
      <path id="Path_81" data-name="Path 81" d="M54.011,60.818h-9.28c-1.572,0-2.355-.662-2.361-1.881S43.208,57,44.7,57H63.412c1.42,0,2.428.88,2.312,1.991a1.943,1.943,0,0,1-2.282,1.821Q58.727,60.812,54.011,60.818Z" transform="translate(-16.654 -22.405)" fill="url(#linear-gradient-7)"/>
      <path id="Path_82" data-name="Path 82" d="M47.628,73.187h9.1c1.6,0,2.519.747,2.494,1.936s-.989,1.906-2.567,1.906H38.4c-1.621,0-2.507-.7-2.537-1.906s.85-1.924,2.513-1.93C41.443,73.175,44.539,73.187,47.628,73.187Z" transform="translate(-14.095 -28.767)" fill="url(#linear-gradient-8)"/>
      <path id="Path_83" data-name="Path 83" d="M51.988,89.35h7.5c1.5,0,2.428.789,2.312,1.942-.14,1.335-1.02,1.821-2.294,1.821H44.669c-1.548,0-2.361-.722-2.282-1.942.085-1.4,1.014-1.821,2.264-1.821Z" transform="translate(-16.659 -35.121)" fill="url(#linear-gradient-9)"/>
      <path id="Path_84" data-name="Path 84" d="M62.909,109.228H57.538c-1.256,0-2.155-.461-2.252-1.821-.085-1.214.8-1.985,2.27-2q5.462-.049,10.925,0c1.438,0,2.379.831,2.373,1.948s-.923,1.881-2.391,1.9H62.94Z" transform="translate(-21.729 -41.422)" fill="url(#linear-gradient-10)"/>
      <path id="Path_85" data-name="Path 85" d="M29,61.145c-.965-.607-2-.91-2.428-1.6a2.485,2.485,0,0,1,.5-2.173c.74-.88,3.611-.831,4.248.073.413.571.692,1.821.37,2.215C31.134,60.356,30.054,60.623,29,61.145Z" transform="translate(-10.402 -22.302)" fill="url(#linear-gradient-11)"/>
      <path id="Path_86" data-name="Path 86" d="M22.968,72.69c.777.413,1.821.649,2.246,1.293a2.542,2.542,0,0,1-.279,2.233c-.607.9-3.478,1.007-4.248.14a2.762,2.762,0,0,1-.607-2.185C20.431,72.878,21.694,72.951,22.968,72.69Z" transform="translate(-7.88 -28.573)" fill="url(#linear-gradient-12)"/>
      <path id="Path_87" data-name="Path 87" d="M42,109.227c-.4,0-.916.158-1.171-.03-.607-.461-1.505-1.05-1.566-1.663a2.318,2.318,0,0,1,1.214-1.869,5.681,5.681,0,0,1,3.168,0,2.136,2.136,0,0,1,1.141,1.76c-.091.643-.868,1.262-1.475,1.736-.285.225-.862.085-1.3.109Z" transform="translate(-15.432 -41.445)" fill="url(#linear-gradient-13)"/>
      <path id="Path_88" data-name="Path 88" d="M28.708,93.268a1.659,1.659,0,0,1-1-.115c-.564-.388-1.3-.947-1.378-1.517s.467-1.754.856-1.821a11.8,11.8,0,0,1,4.024.164c.34.067.668,1.275.607,1.918C31.731,92.922,30.863,93.274,28.708,93.268Z" transform="translate(-10.349 -35.264)" fill="url(#linear-gradient-14)"/>
      <path id="Path_89" data-name="Path 89" d="M116.143,78.235c-.5,1.111-.825,1.948-1.256,2.719a1.214,1.214,0,0,0,.146,1.7c1.056,1.141,1.086,2.209.243,3s-1.821.728-3-.395c-.395-.376-.753-.8-1.165-1.153a2.246,2.246,0,0,1-.54-3.071,22.721,22.721,0,0,1,1.888-3.544,2.6,2.6,0,0,1,2.142-.74C115.16,76.852,115.609,77.707,116.143,78.235Z" transform="translate(-43.312 -30.161)" fill="url(#linear-gradient-15)"/>
    </g>
  </g>
</svg>
