<svg xmlns="http://www.w3.org/2000/svg" xmlns:xlink="http://www.w3.org/1999/xlink" width="140.44" height="140.438" viewBox="0 0 140.44 140.438">
  <defs>
    <linearGradient id="linear-gradient" y1="0.5" x2="1" y2="0.5" gradientUnits="objectBoundingBox">
      <stop offset="0" stop-color="#bc2340"/>
      <stop offset="1" stop-color="#581449"/>
    </linearGradient>
    <linearGradient id="linear-gradient-2" x1="0" y1="0.503" x2="0.999" y2="0.503" xlink:href="#linear-gradient"/>
    <linearGradient id="linear-gradient-3" x1="0" y1="0.499" y2="0.499" xlink:href="#linear-gradient"/>
    <linearGradient id="linear-gradient-4" x1="0.008" y1="0.499" x2="1.008" y2="0.499" xlink:href="#linear-gradient"/>
    <linearGradient id="linear-gradient-5" x1="-0.015" y1="0.499" x2="0.984" y2="0.499" xlink:href="#linear-gradient"/>
    <linearGradient id="linear-gradient-6" x1="0.001" xlink:href="#linear-gradient"/>
    <linearGradient id="linear-gradient-7" x1="0" x2="0.999" xlink:href="#linear-gradient"/>
    <linearGradient id="linear-gradient-8" x1="0" xlink:href="#linear-gradient"/>
    <linearGradient id="linear-gradient-9" x1="0" y1="0.503" y2="0.503" xlink:href="#linear-gradient"/>
    <linearGradient id="linear-gradient-11" x1="-0.003" y1="0.502" y2="0.502" xlink:href="#linear-gradient"/>
    <linearGradient id="linear-gradient-12" x1="-0.003" y1="0.499" x2="1.003" y2="0.499" xlink:href="#linear-gradient"/>
  </defs>
  <g id="abt-icon-3" transform="translate(0.005)">
    <g id="Layer_1" data-name="Layer 1" transform="translate(-0.005 0)">
      <path id="Path_95" data-name="Path 95" d="M165.821,130.71a35.111,35.111,0,1,0,35.111,35.111A35.111,35.111,0,0,0,165.821,130.71Zm0,65.537a30.426,30.426,0,1,1,30.426-30.426,30.427,30.427,0,0,1-30.426,30.426Z" transform="translate(-60.491 -60.494)" fill="url(#linear-gradient)"/>
      <path id="Path_96" data-name="Path 96" d="M72.556,233.819H7.019a2.509,2.509,0,0,1-2.342-2.342v-7.021a2.342,2.342,0,1,0-4.679,0v7.021A7.209,7.209,0,0,0,7.019,238.5H72.556a2.342,2.342,0,1,0,0-4.679Z" transform="translate(0.005 -102.744)" fill="url(#linear-gradient-2)"/>
      <path id="Path_97" data-name="Path 97" d="M128.73,32.769V21.063a7.032,7.032,0,0,0-7.021-7.021H71.777a2.369,2.369,0,0,1-1.407-.467L54.141,1.4A7.069,7.069,0,0,0,49.956,0H14.04A7.032,7.032,0,0,0,7.019,7.021V32.769A7.026,7.026,0,0,0,0,39.79v63.2a2.342,2.342,0,1,0,4.679,0V39.79a2.348,2.348,0,0,1,2.342-2.342H128.73a2.348,2.348,0,0,1,2.342,2.342V72.558a2.342,2.342,0,1,0,4.679,0V39.79a7.026,7.026,0,0,0-7.021-7.021Zm-16.384,0H23.4V30.426a2.342,2.342,0,0,1,2.342-2.337H110a2.342,2.342,0,0,1,2.342,2.337Zm11.705,0h-7.026V30.426A7.032,7.032,0,0,0,110,23.405H25.745a7.032,7.032,0,0,0-7.021,7.021v2.342H11.7V7.021A2.342,2.342,0,0,1,14.04,4.679H49.956a2.337,2.337,0,0,1,1.407.473L67.592,17.319A7.026,7.026,0,0,0,71.8,18.726h49.932a2.342,2.342,0,0,1,2.342,2.337V32.769Z" transform="translate(0.005 0)" fill="url(#linear-gradient-3)"/>
      <path id="Path_98" data-name="Path 98" d="M42.109,21.788H32.746a2.342,2.342,0,1,0,0,4.679h9.363a2.342,2.342,0,0,0,0-4.679Z" transform="translate(-14.016 -10.082)" fill="url(#linear-gradient-4)"/>
      <path id="Path_99" data-name="Path 99" d="M87.561,21.788H85.219a2.342,2.342,0,0,0,0,4.679h2.342a2.342,2.342,0,1,0,0-4.679Z" transform="translate(-38.405 -10.082)" fill="url(#linear-gradient-5)"/>
      <circle id="Ellipse_3" data-name="Ellipse 3" cx="2.342" cy="2.342" r="2.342" transform="translate(35.108 11.7)" fill="url(#linear-gradient-6)"/>
      <circle id="Ellipse_4" data-name="Ellipse 4" cx="2.342" cy="2.342" r="2.342" transform="translate(0.003 110.006)" fill="url(#linear-gradient-7)"/>
      <path id="Path_100" data-name="Path 100" d="M84.887,98.966a11.705,11.705,0,1,0-15.009,0C66.762,102.3,61,109.721,61,122.828a2.342,2.342,0,1,0,4.679,0c0-12.748,6.2-19.258,8.5-21.568a10.438,10.438,0,0,0,6.414,0c2.3,2.31,8.493,8.821,8.493,21.568a2.342,2.342,0,1,0,4.684,0C93.766,109.721,88,102.3,84.887,98.966Zm-7.521-1.886a7.013,7.013,0,1,1,.016,0Z" transform="translate(-28.226 -36.228)" fill="url(#linear-gradient-8)"/>
      <path id="Path_101" data-name="Path 101" d="M145.077,92.085a9.363,9.363,0,1,0-16.374,6.14c-2.321,2.783-2.348,5.6-2.348,7.907a2.342,2.342,0,0,0,4.679,0c0-2.111,0-3.642,1.558-5.259a8.778,8.778,0,0,0,6.248,0c1.547,1.612,1.558,3.148,1.558,5.259a2.342,2.342,0,0,0,4.679,0c0-2.31-.027-5.125-2.348-7.907A9.283,9.283,0,0,0,145.077,92.085Zm-9.363,4.684a4.684,4.684,0,1,1,4.684-4.684,4.684,4.684,0,0,1-4.684,4.684Z" transform="translate(-58.473 -38.253)" fill="url(#linear-gradient-9)"/>
      <path id="Path_102" data-name="Path 102" d="M40.507,92.085a9.363,9.363,0,1,0-16.374,6.14c-2.321,2.783-2.348,5.6-2.348,7.907a2.342,2.342,0,0,0,4.679,0c0-2.111,0-3.642,1.558-5.259a8.778,8.778,0,0,0,6.248,0c1.547,1.612,1.558,3.148,1.558,5.259a2.342,2.342,0,0,0,4.679,0c0-2.31,0-5.125-2.348-7.907A9.283,9.283,0,0,0,40.507,92.085ZM31.143,96.77a4.684,4.684,0,1,1,4.684-4.684,4.684,4.684,0,0,1-4.684,4.684Z" transform="translate(-10.077 -38.253)" fill="url(#linear-gradient-9)"/>
      <path id="Path_103" data-name="Path 103" d="M218.841,185.206a2.342,2.342,0,0,0-3.309,0l-5.372,5.372V163.456a2.342,2.342,0,1,0-4.679,0v27.117l-5.372-5.372a2.342,2.342,0,0,0-3.309,3.309l9.358,9.363a2.342,2.342,0,0,0,3.314,0l9.358-9.363a2.331,2.331,0,0,0,.011-3.3Z" transform="translate(-90.794 -74.513)" fill="url(#linear-gradient-11)"/>
      <path id="Path_104" data-name="Path 104" d="M175.281,171.262l-9.363-9.363a2.337,2.337,0,0,0-3.309,0l-9.358,9.363a2.342,2.342,0,0,0,3.309,3.309l5.372-5.372v27.117a2.342,2.342,0,1,0,4.679,0V169.2l5.372,5.372a2.342,2.342,0,0,0,3.309-3.309Z" transform="translate(-70.638 -74.61)" fill="url(#linear-gradient-12)"/>
    </g>
  </g>
</svg>
