<svg xmlns="http://www.w3.org/2000/svg" xmlns:xlink="http://www.w3.org/1999/xlink" width="164.292" height="170.975" viewBox="0 0 164.292 170.975">
  <defs>
    <linearGradient id="linear-gradient" y1="0.5" x2="1" y2="0.5" gradientUnits="objectBoundingBox">
      <stop offset="0" stop-color="#bc2340"/>
      <stop offset="1" stop-color="#581449"/>
    </linearGradient>
    <linearGradient id="linear-gradient-2" x1="-0.001" y1="0.501" x2="1" y2="0.501" xlink:href="#linear-gradient"/>
    <linearGradient id="linear-gradient-3" x1="0" y1="0.501" x2="1" y2="0.501" xlink:href="#linear-gradient"/>
    <linearGradient id="linear-gradient-4" x1="0" y1="0.504" x2="1" y2="0.504" xlink:href="#linear-gradient"/>
    <linearGradient id="linear-gradient-5" x1="0" y1="0.501" x2="1" y2="0.501" xlink:href="#linear-gradient"/>
  </defs>
  <g id="abt-icon-2" transform="translate(0.001 -0.003)">
    <g id="Layer_1" data-name="Layer 1" transform="translate(-0.001 0.003)">
      <path id="Path_90" data-name="Path 90" d="M148.379,27.438,101.625.451a3.33,3.33,0,0,0-3.336,0l-46.748,27a3.343,3.343,0,0,0-1.671,2.893V54.411A3.336,3.336,0,0,0,51.541,57.3L63.01,63.932,51.541,70.553a3.343,3.343,0,0,0-1.671,2.893V97.527a3.336,3.336,0,0,0,1.671,2.893l11.468,6.621-11.468,6.628a3.336,3.336,0,0,0-1.671,2.893v24.081a3.336,3.336,0,0,0,1.671,2.893l46.748,27a3.356,3.356,0,0,0,3.336,0l46.754-27a3.336,3.336,0,0,0,1.671-2.893V116.561a3.336,3.336,0,0,0-1.671-2.893L136.9,107.047l11.475-6.628a3.336,3.336,0,0,0,1.671-2.893V73.446a3.343,3.343,0,0,0-1.671-2.893L136.9,63.932,148.379,57.3a3.336,3.336,0,0,0,1.671-2.893V30.33a3.343,3.343,0,0,0-1.671-2.893ZM99.96,7.195l40.068,23.142L99.96,53.479,59.885,30.337ZM56.549,36.122,96.618,59.265V75.632L56.549,52.489Zm0,43.115L96.618,102.38v16.354L56.549,95.592Zm0,43.115L96.618,145.5v16.367L56.549,138.72Zm46.76,39.5V145.483l40.075-23.142v16.367Zm36.732-45.288L99.973,139.7,59.9,116.561l9.8-5.663,28.6,16.515a3.356,3.356,0,0,0,3.336,0l28.6-16.508Zm-36.732,2.173V102.367l40.075-23.142V95.592Zm36.732-45.288L99.973,96.588,59.9,73.446l9.8-5.657L98.3,84.3a3.356,3.356,0,0,0,3.336,0l28.6-16.508ZM103.31,75.619V59.252L143.384,36.11V52.483Z" transform="translate(-17.811 -0.003)" fill="url(#linear-gradient)"/>
      <path id="Path_91" data-name="Path 91" d="M236.06,135a3.336,3.336,0,1,0,2.366.977A3.336,3.336,0,0,0,236.06,135Z" transform="translate(-83.12 -48.218)" fill="url(#linear-gradient-2)"/>
      <path id="Path_92" data-name="Path 92" d="M242.954,47.972a11.353,11.353,0,1,0-14.689,10.851V88.176a3.343,3.343,0,0,0,6.679,0V58.823A11.366,11.366,0,0,0,242.954,47.972ZM231.6,52.646a4.673,4.673,0,1,1,4.68-4.673A4.674,4.674,0,0,1,231.6,52.646Z" transform="translate(-78.662 -13.081)" fill="url(#linear-gradient-3)"/>
      <path id="Path_93" data-name="Path 93" d="M15.806,236.29a3.336,3.336,0,0,0-3.336,3.336v12.4a3.343,3.343,0,0,0,6.679,0v-12.4a3.336,3.336,0,0,0-3.343-3.336Z" transform="translate(-4.453 -84.395)" fill="url(#linear-gradient-4)"/>
      <path id="Path_94" data-name="Path 94" d="M11.352,137.91a11.353,11.353,0,0,0-3.336,22.2v27.7a3.343,3.343,0,0,0,6.679,0v-27.7a11.353,11.353,0,0,0-3.343-22.2Zm0,16.026a4.673,4.673,0,1,1,4.673-4.673A4.673,4.673,0,0,1,11.352,153.936Z" transform="translate(0.001 -49.258)" fill="url(#linear-gradient-5)"/>
    </g>
  </g>
</svg>
