<svg xmlns="http://www.w3.org/2000/svg" xmlns:xlink="http://www.w3.org/1999/xlink" width="306.782" height="307.554" viewBox="0 0 306.782 307.554">
  <defs>
    <linearGradient id="linear-gradient" y1="0.5" x2="1" y2="0.5" gradientUnits="objectBoundingBox">
      <stop offset="0" stop-color="#bc2340"/>
      <stop offset="1" stop-color="#581449"/>
    </linearGradient>
    <linearGradient id="linear-gradient-2" y1="0.5" x2="1" y2="0.5" xlink:href="#linear-gradient"/>
    <linearGradient id="linear-gradient-3" x1="-0.003" y1="0.506" x2="1.001" y2="0.506" xlink:href="#linear-gradient"/>
    <linearGradient id="linear-gradient-4" x1="0.002" y1="0.496" x2="1" y2="0.496" xlink:href="#linear-gradient"/>
    <linearGradient id="linear-gradient-5" y1="0.5" x2="1" y2="0.5" xlink:href="#linear-gradient"/>
  </defs>
  <g id="tech-icon-1" transform="translate(0 0)">
    <g id="Layer_1" data-name="Layer 1" transform="translate(0 0)">
      <path id="Path_105" data-name="Path 105" d="M295.68,238.11l-26.286-24.735a22.028,22.028,0,0,0-15.184-6.027h-2.163l15.293-60.926a15.538,15.538,0,0,0,.163-6.8l-1.946-9.714L293.353,19.1a15.381,15.381,0,0,0-29.837-7.483l-12.572,50.1a4.509,4.509,0,1,0,8.735,2.245l12.572-50.1a6.395,6.395,0,1,1,12.395,3.1L256.6,128.734a4.449,4.449,0,0,0,0,1.986l2.136,10.694a6.558,6.558,0,0,1,0,2.816L242.9,207.347H217.8l17.32-69.022a6.231,6.231,0,0,1,1.265-2.5l6.925-8.422a4.463,4.463,0,0,0,.9-1.769l10.8-43.1a4.516,4.516,0,0,0-8.748-2.245l-10.558,42.178-6.3,7.646a15.484,15.484,0,0,0-3.048,6.041l-17.851,71.2H129.377a4.5,4.5,0,1,0,0,8.993H243.012v16.191a2.041,2.041,0,0,1-2.041,2.041H225.08a4.5,4.5,0,0,0,0,8.993h15.891a11.048,11.048,0,0,0,11.034-11.034V216.341h2.218a13.075,13.075,0,0,1,9.021,3.578l26.273,24.735a26.436,26.436,0,0,1,8.272,19.143v34.695H262.414l-31.388-26.831a31.633,31.633,0,0,0-20.558-7.592H96.274a31.661,31.661,0,0,0-20.558,7.592l-31.293,26.83H9.048V263.8a26.381,26.381,0,0,1,8.272-19.143l26.218-24.735a13.062,13.062,0,0,1,9.007-3.578h2.218v16.191A11.048,11.048,0,0,0,65.8,243.552H205.936a4.5,4.5,0,0,0,0-8.993H65.8a2.041,2.041,0,0,1-2.041-2.041V216.341h46.45a4.5,4.5,0,1,0,0-8.993H98.247L80.383,136.135a15.334,15.334,0,0,0-3.048-6.027l-6.286-7.646L43.253,11.656A15.388,15.388,0,1,0,13.4,19.14l27.8,110.8-1.932,9.714a15.334,15.334,0,0,0,.163,6.8l15.279,60.926H52.545a22.014,22.014,0,0,0-15.17,6.027L11.1,238.11A35.375,35.375,0,0,0,0,263.8v34.708A8.993,8.993,0,0,0,8.98,307.5H44.355a9.021,9.021,0,0,0,5.837-2.163l8.163-7.007h190l8.231,7.034a8.993,8.993,0,0,0,5.837,2.163H297.8a8.993,8.993,0,0,0,8.98-8.98V263.8a35.375,35.375,0,0,0-11.1-25.688ZM48.151,144.231a6.354,6.354,0,0,1,0-2.816l2.136-10.694a4.449,4.449,0,0,0,0-1.986L22.123,16.949a6.4,6.4,0,0,1,12.408-3.1L62.586,125.631a4.612,4.612,0,0,0,.884,1.769l6.939,8.422a6.422,6.422,0,0,1,1.265,2.5l17.306,69.022H63.947ZM97.5,273.063h11.129v16.259H97.5Zm20.123,0h11.143v16.259H117.622Zm20.136,0h11.129v16.259H137.758Zm20.123,0h11.143v16.259h-11.2Zm20.136,0h11.1v16.259H177.99Zm20.123,0h11.143v16.259H198.14ZM81.566,278.505a22.722,22.722,0,0,1,6.939-4.082v14.885H68.913Zm136.71,10.885V274.437a22.721,22.721,0,0,1,6.939,4.082L237.869,289.4Z" transform="translate(0 0.027)" fill="url(#linear-gradient)"/>
      <path id="Path_106" data-name="Path 106" d="M67.161,84.6a4.5,4.5,0,0,0,6.327-.653,72.532,72.532,0,0,1,112.22-.435,4.494,4.494,0,0,0,6.925-5.728,81.512,81.512,0,0,0-126.125.49,4.49,4.49,0,0,0,.653,6.327Z" transform="translate(23.617 17.402)" fill="url(#linear-gradient-2)"/>
      <path id="Path_107" data-name="Path 107" d="M169.039,91.163a4.5,4.5,0,0,0,7.061-5.578,63.471,63.471,0,0,0-100.125.5,4.5,4.5,0,0,0,7.116,5.442,54.423,54.423,0,0,1,85.947-.435Z" transform="translate(27.156 22.169)" fill="url(#linear-gradient-3)"/>
      <path id="Path_108" data-name="Path 108" d="M152.479,98.75a4.492,4.492,0,0,0,7.279-5.265,45.484,45.484,0,0,0-74.165.531,4.5,4.5,0,1,0,7.361,5.17,36.491,36.491,0,0,1,59.525-.435Z" transform="translate(30.518 26.936)" fill="url(#linear-gradient-4)"/>
      <path id="Path_109" data-name="Path 109" d="M141.58,107.887a4.49,4.49,0,0,0,1.674-6.136,27.538,27.538,0,0,0-48.232.639,4.49,4.49,0,0,0,1.837,6.082,4.436,4.436,0,0,0,2.123.544,4.517,4.517,0,0,0,3.973-2.381,18.531,18.531,0,0,1,32.491-.422,4.5,4.5,0,0,0,6.136,1.674Z" transform="translate(34.07 31.704)" fill="url(#linear-gradient-5)"/>
      <path id="Path_110" data-name="Path 110" d="M116.5,101.15a14.2,14.2,0,1,0,14.2,14.2,14.2,14.2,0,0,0-14.2-14.2Zm0,19.415a5.211,5.211,0,1,1,5.211-5.211A5.211,5.211,0,0,1,116.5,120.565Z" transform="translate(36.887 36.509)" fill="url(#linear-gradient)"/>
    </g>
  </g>
</svg>
