<svg id="tech-icon-2" xmlns="http://www.w3.org/2000/svg" xmlns:xlink="http://www.w3.org/1999/xlink" width="341.617" height="307.505" viewBox="0 0 341.617 307.505">
  <defs>
    <linearGradient id="linear-gradient" y1="0.5" x2="1" y2="0.5" gradientUnits="objectBoundingBox">
      <stop offset="0" stop-color="#bc2340"/>
      <stop offset="1" stop-color="#581449"/>
    </linearGradient>
    <linearGradient id="linear-gradient-2" x1="0" y1="0.497" x2="0.998" y2="0.497" xlink:href="#linear-gradient"/>
    <linearGradient id="linear-gradient-3" x1="0" y1="0.5" x2="1" y2="0.5" xlink:href="#linear-gradient"/>
    <linearGradient id="linear-gradient-4" x1="0.001" y1="0.498" x2="1" y2="0.498" xlink:href="#linear-gradient"/>
    <linearGradient id="linear-gradient-5" x1="0" y1="0.5" x2="1" y2="0.5" xlink:href="#linear-gradient"/>
    <linearGradient id="linear-gradient-6" x1="-0.006" y1="0.501" x2="0.999" y2="0.501" xlink:href="#linear-gradient"/>
    <linearGradient id="linear-gradient-7" x1="0" y1="0.501" x2="1.004" y2="0.501" xlink:href="#linear-gradient"/>
    <linearGradient id="linear-gradient-8" x1="0" y1="0.502" x2="1.003" y2="0.502" xlink:href="#linear-gradient"/>
    <linearGradient id="linear-gradient-9" x1="0" y1="0.502" x2="1.004" y2="0.502" xlink:href="#linear-gradient"/>
  </defs>
  <g id="Layer_1" data-name="Layer 1" transform="translate(0 0)">
    <path id="Path_111" data-name="Path 111" d="M139.066,171.73a17.063,17.063,0,1,0,12.078,5,17.076,17.076,0,0,0-12.078-5Zm0,22.772a5.7,5.7,0,1,1,5.7-5.7,5.7,5.7,0,0,1-5.7,5.7Z" transform="translate(31.745 44.699)" fill="url(#linear-gradient)"/>
    <path id="Path_112" data-name="Path 112" d="M142.928,153.65a39.836,39.836,0,0,0-35.1,20.97,5.72,5.72,0,1,0,10.082,5.406,28.481,28.481,0,0,1,50.157,0,5.7,5.7,0,1,0,10.019-5.406,39.836,39.836,0,0,0-35.1-20.97Z" transform="translate(27.884 39.994)" fill="url(#linear-gradient-2)"/>
    <path id="Path_113" data-name="Path 113" d="M149.968,117.51a85.8,85.8,0,0,0-68.732,34.643A5.7,5.7,0,1,0,90.347,159v-.076a74.013,74.013,0,0,1,119.053,0,5.71,5.71,0,1,0,9.2-6.767,85.8,85.8,0,0,0-68.682-34.643Z" transform="translate(20.843 30.589)" fill="url(#linear-gradient-3)"/>
    <path id="Path_114" data-name="Path 114" d="M146.489,135.58a62.656,62.656,0,0,0-51.905,27.569,5.7,5.7,0,1,0,9.385,6.445h0a51.291,51.291,0,0,1,84.964,0,5.685,5.685,0,1,0,9.464-6.3h0A62.658,62.658,0,0,0,146.489,135.58Z" transform="translate(24.322 35.292)" fill="url(#linear-gradient-4)"/>
    <path id="Path_115" data-name="Path 115" d="M318.836,170.863a22.81,22.81,0,0,0-22.054,17.089H267.6V159.483h11.342V148.141H267.6v-5.734a17.089,17.089,0,0,0-17.076-17.076H222.051v-43.2l39.684-39.684a22.81,22.81,0,1,0-8.053-8.053L212.335,75.742a5.7,5.7,0,0,0-1.663,4.033v45.544H199.329V102.546H187.987v22.772H176.645V44.891a22.772,22.772,0,1,0-11.342,0v80.427H153.962V102.546H142.62v22.772H131.277V79.774a5.7,5.7,0,0,0-1.663-4.033L87.938,34.394a22.81,22.81,0,1,0-8.053,8.053L119.57,82.131v43.188H91.1a17.089,17.089,0,0,0-17.076,17.089v5.7H62.684v11.342H74.026v28.468h-29.2a22.772,22.772,0,1,0,0,11.342h29.2v28.468H51.241v11.342H74.026v17.076a17.076,17.076,0,0,0,17.076,17.2h56.874a14.845,14.845,0,0,1-8.179,12,5.7,5.7,0,0,0-3.151,5.041v11.342a5.7,5.7,0,0,0,5.759,5.772h56.937a5.7,5.7,0,0,0,5.7-5.7V290.458a5.7,5.7,0,0,0-3.151-5.041,14.845,14.845,0,0,1-8.179-12h56.874a17.076,17.076,0,0,0,17.076-17.076V239.192h22.785V227.85H267.6V199.331h29.2a22.772,22.772,0,1,0,22.041-28.468ZM273.292,11.445A11.342,11.342,0,1,1,261.95,22.787,11.342,11.342,0,0,1,273.292,11.445ZM68.329,34.217A11.342,11.342,0,1,1,79.671,22.875,11.342,11.342,0,0,1,68.329,34.217ZM22.772,205.028a11.342,11.342,0,1,1,11.342-11.342A11.342,11.342,0,0,1,22.772,205.028ZM159.418,22.837A11.342,11.342,0,1,1,170.76,34.179a11.342,11.342,0,0,1-11.342-11.342Zm34.165,273.317H148.038v-2.52a26.112,26.112,0,0,0,11.342-20.327h22.86a26.112,26.112,0,0,0,11.342,20.327Zm62.633-56.937H199.279a5.7,5.7,0,1,0,0,11.342h56.937v5.7a5.709,5.709,0,0,1-5.7,5.7H91.1a5.709,5.709,0,0,1-5.7-5.7v-5.7h57a5.7,5.7,0,1,0,0-11.342h-57v-96.81a5.709,5.709,0,0,1,5.7-5.7H250.52a5.709,5.709,0,0,1,5.7,5.7Zm62.62-34.19a11.342,11.342,0,1,1,11.342-11.342A11.342,11.342,0,0,1,318.836,205.028Z" transform="translate(0.001 0.009)" fill="url(#linear-gradient-5)"/>
    <path id="Path_116" data-name="Path 116" d="M113,63.3h11.342V74.642H113Z" transform="translate(29.406 16.483)" fill="url(#linear-gradient-6)"/>
    <path id="Path_117" data-name="Path 117" d="M149.09,63.3h11.342V74.642H149.09Z" transform="translate(38.797 16.483)" fill="url(#linear-gradient-7)"/>
    <path id="Path_118" data-name="Path 118" d="M31.63,117.51H42.972v11.342H31.63Z" transform="translate(8.232 30.589)" fill="url(#linear-gradient-8)"/>
    <path id="Path_119" data-name="Path 119" d="M22.59,180.76H33.932V192.1H22.59Z" transform="translate(5.879 47.048)" fill="url(#linear-gradient-9)"/>
    <path id="Path_120" data-name="Path 120" d="M230.42,117.51h11.342v11.342H230.42Z" transform="translate(59.961 30.589)" fill="url(#linear-gradient-8)"/>
    <path id="Path_121" data-name="Path 121" d="M239.45,180.76h11.342V192.1H239.45Z" transform="translate(62.311 47.048)" fill="url(#linear-gradient-9)"/>
  </g>
</svg>
