<svg xmlns="http://www.w3.org/2000/svg" xmlns:xlink="http://www.w3.org/1999/xlink" width="416" height="416" viewBox="0 0 416 416">
  <defs>
    <linearGradient id="linear-gradient" y1="0.5" x2="1" y2="0.5" gradientUnits="objectBoundingBox">
      <stop offset="0" stop-color="#bc2340"/>
      <stop offset="1" stop-color="#581449"/>
    </linearGradient>
    <linearGradient id="linear-gradient-2" x1="0.007" y1="0.5" y2="0.5" xlink:href="#linear-gradient"/>
    <linearGradient id="linear-gradient-3" x1="0.001" y1="0.5" y2="0.5" xlink:href="#linear-gradient"/>
    <linearGradient id="linear-gradient-4" y1="0.5" x2="0.999" y2="0.5" xlink:href="#linear-gradient"/>
    <linearGradient id="linear-gradient-8" y1="0.497" y2="0.497" xlink:href="#linear-gradient"/>
    <linearGradient id="linear-gradient-9" y1="0.5" y2="0.5" xlink:href="#linear-gradient"/>
    <linearGradient id="linear-gradient-10" x1="0.001" y1="0.501" x2="0.995" y2="0.501" xlink:href="#linear-gradient"/>
    <linearGradient id="linear-gradient-11" y1="0.5" x2="0.999" y2="0.5" xlink:href="#linear-gradient"/>
    <linearGradient id="linear-gradient-13" y1="0.5" y2="0.5" xlink:href="#linear-gradient"/>
    <linearGradient id="linear-gradient-15" x1="0.231" y1="1.17" x2="0.699" y2="-0.032" xlink:href="#linear-gradient"/>
    <linearGradient id="linear-gradient-16" x1="-0.502" y1="1.087" x2="0.55" y2="0.334" xlink:href="#linear-gradient"/>
    <linearGradient id="linear-gradient-17" x1="0.308" y1="0.766" x2="1.363" y2="0.014" xlink:href="#linear-gradient"/>
  </defs>
  <g id="icon-3" transform="translate(80 103)">
    <circle id="Ellipse_7" data-name="Ellipse 7" cx="208" cy="208" r="208" transform="translate(-80 -103)" fill="#fff"/>
    <g id="Layer_1" data-name="Layer 1">
      <path id="Path_15" data-name="Path 15" d="M211.81,37.41H4.17a4.17,4.17,0,1,1,0-8.34H211.81a4.17,4.17,0,0,1,0,8.34Z" fill="url(#linear-gradient)"/>
      <path id="Path_16" data-name="Path 16" d="M30.81,19.67a5,5,0,1,0-5,5,5,5,0,0,0,5-5Z" fill="url(#linear-gradient-2)"/>
      <circle id="Ellipse_1" data-name="Ellipse 1" cx="4.97" cy="4.97" r="4.97" transform="translate(39.83 14.7)" fill="url(#linear-gradient-3)"/>
      <circle id="Ellipse_2" data-name="Ellipse 2" cx="4.97" cy="4.97" r="4.97" transform="translate(58.79 14.7)" fill="url(#linear-gradient-4)"/>
      <path id="Path_17" data-name="Path 17" d="M113.17,23.84H98.48a4.17,4.17,0,1,1,0-8.34h14.69a4.17,4.17,0,0,1,0,8.34Z" fill="url(#linear-gradient)"/>
      <path id="Path_18" data-name="Path 18" d="M231.89,188.24H17.71A17.73,17.73,0,0,1,0,170.53V17.71A17.74,17.74,0,0,1,17.71,0H231.89A17.73,17.73,0,0,1,249.6,17.71V33.24a4.17,4.17,0,0,1-8.34,0V17.71a9.38,9.38,0,0,0-9.37-9.37H17.71a9.38,9.38,0,0,0-9.37,9.37V170.53a9.38,9.38,0,0,0,9.37,9.38H231.89a9.38,9.38,0,0,0,9.37-9.38V91.3a4.17,4.17,0,1,1,8.34,0v79.23a17.72,17.72,0,0,1-17.71,17.71Z" fill="url(#linear-gradient)"/>
      <path id="Path_19" data-name="Path 19" d="M163.54,23.84H134.75a4.17,4.17,0,0,1,0-8.34h28.79a4.17,4.17,0,0,1,0,8.34Z" fill="url(#linear-gradient)"/>
      <path id="Path_20" data-name="Path 20" d="M20.88,160.85a4.17,4.17,0,1,1,0-8.34L245.15,151a4.17,4.17,0,1,1,.06,8.34l-224.3,1.53Z" fill="url(#linear-gradient-8)"/>
      <path id="Path_21" data-name="Path 21" d="M24.06,141a4.174,4.174,0,0,1-2.78-7.28L47,110.75a4.18,4.18,0,0,1,5.55,0l17.77,15.77H91.37l40.25-46a4.16,4.16,0,0,1,6.84.85l15.09,29.46h10.1l32.41-49.72a4.17,4.17,0,0,1,7.36.73l9.91,24.83L249.1,50.51a4.17,4.17,0,0,1,7.07,3.61L254,67.37A4.17,4.17,0,0,1,245.78,66l.06-.37-31.06,31.4a4.17,4.17,0,0,1-6.84-1.39L198.66,72.4,169.4,117.28a4.18,4.18,0,0,1-3.49,1.89H151a4.17,4.17,0,0,1-3.71-2.27L133.84,90.64,96.4,133.43a4.19,4.19,0,0,1-3.14,1.42H68.72a4.2,4.2,0,0,1-2.76-1L49.78,119.44l-23,20.47A4.13,4.13,0,0,1,24.06,141Z" fill="url(#linear-gradient-9)"/>
      <path id="Path_22" data-name="Path 22" d="M238.29,60.42a4.17,4.17,0,0,1-.83-8.26l13.77-2.8a4.17,4.17,0,1,1,1.66,8.17l-13.76,2.81a4.78,4.78,0,0,1-.84.08Z" fill="url(#linear-gradient-10)"/>
      <path id="Path_23" data-name="Path 23" d="M221,127.46H199.55a4.17,4.17,0,0,1,0-8.34H221a4.17,4.17,0,1,1,0,8.34Z" fill="url(#linear-gradient-11)"/>
      <path id="Path_24" data-name="Path 24" d="M221,143.39H199.55a4.17,4.17,0,1,1,0-8.34H221a4.17,4.17,0,1,1,0,8.34Z" fill="url(#linear-gradient-11)"/>
      <path id="Path_25" data-name="Path 25" d="M134.75,69.6a4.17,4.17,0,0,1-4.17-4.17v-12a4.17,4.17,0,0,1,8.34,0v12A4.17,4.17,0,0,1,134.75,69.6Z" fill="url(#linear-gradient-13)"/>
      <path id="Path_26" data-name="Path 26" d="M49.77,103a4.17,4.17,0,0,1-4.17-4.17v-9.7a4.17,4.17,0,0,1,8.34,0v9.69A4.17,4.17,0,0,1,49.77,103Z" fill="url(#linear-gradient)"/>
      <path id="Path_27" data-name="Path 27" d="M78.26,55.69l4.54,4.23C78,63.56,76.1,68,78.5,74.46l10.2-9.89,8.5,9.8c3-5.18,1.82-9.31-3.75-14.46.65-.73,1.28-1.49,2-2.2s1.49-1.41,2.22-2.09c9.87,5.75,10,20.41-.26,28.12L88.32,73.09,79.37,83.82C68.6,77.15,68.56,62,78.26,55.69Z" fill="url(#linear-gradient-15)"/>
      <path id="Path_28" data-name="Path 28" d="M102.11,51l4.07-4c14.63,9,14.74,35,.13,45l-3.76-4.39C114.1,74.07,114.09,63.45,102.11,51Z" fill="url(#linear-gradient-16)"/>
      <path id="Path_29" data-name="Path 29" d="M70,46.88l3.8,4.32C61.56,62.28,62.89,78.08,74,87.76l-4,4.17C56.17,82.52,54.36,58.39,70,46.88Z" fill="url(#linear-gradient-17)"/>
    </g>
  </g>
</svg>
