<svg xmlns="http://www.w3.org/2000/svg" xmlns:xlink="http://www.w3.org/1999/xlink" width="416" height="416" viewBox="0 0 416 416">
  <defs>
    <linearGradient id="linear-gradient" x1="0.231" y1="1.17" x2="0.699" y2="-0.032" gradientUnits="objectBoundingBox">
      <stop offset="0" stop-color="#bc2340"/>
      <stop offset="1" stop-color="#581449"/>
    </linearGradient>
    <linearGradient id="linear-gradient-2" x1="-0.502" y1="1.087" x2="0.55" y2="0.333" xlink:href="#linear-gradient"/>
    <linearGradient id="linear-gradient-3" x1="0.309" y1="0.767" x2="1.368" y2="0.014" xlink:href="#linear-gradient"/>
    <linearGradient id="linear-gradient-4" x1="0" y1="0.5" x2="1" y2="0.5" xlink:href="#linear-gradient"/>
    <linearGradient id="linear-gradient-5" x1="0" y1="0.5" x2="1" y2="0.5" xlink:href="#linear-gradient"/>
    <linearGradient id="linear-gradient-6" x1="0" y1="0.5" x2="1" y2="0.5" xlink:href="#linear-gradient"/>
    <linearGradient id="linear-gradient-7" x1="0" y1="0.499" x2="1" y2="0.499" xlink:href="#linear-gradient"/>
    <linearGradient id="linear-gradient-8" x1="0" y1="0.5" x2="1" y2="0.5" xlink:href="#linear-gradient"/>
    <linearGradient id="linear-gradient-9" x1="0" y1="0.5" x2="1" y2="0.5" xlink:href="#linear-gradient"/>
    <linearGradient id="linear-gradient-10" x1="0.001" y1="0.501" x2="0.999" y2="0.501" xlink:href="#linear-gradient"/>
    <linearGradient id="linear-gradient-11" x1="0" y1="0.5" x2="1" y2="0.5" xlink:href="#linear-gradient"/>
    <linearGradient id="linear-gradient-12" x1="0.001" y1="0.5" x2="1.001" y2="0.5" xlink:href="#linear-gradient"/>
    <linearGradient id="linear-gradient-13" x1="0.001" y1="0.5" x2="1" y2="0.5" xlink:href="#linear-gradient"/>
    <linearGradient id="linear-gradient-14" x1="0" y1="0.5" x2="1" y2="0.5" xlink:href="#linear-gradient"/>
  </defs>
  <g id="icon-4" transform="translate(113 72)">
    <circle id="Ellipse_8" data-name="Ellipse 8" cx="208" cy="208" r="208" transform="translate(-113 -72)" fill="#fff"/>
    <g id="Layer_1" data-name="Layer 1" transform="translate(-10 3)">
      <path id="Path_1" data-name="Path 1" d="M62.2,180.18l5.22,4.87c-5.54,4.19-7.71,9.35-5,16.75l11.75-11.39L84,201.69c3.44-6,2.1-10.72-4.31-16.65.74-.84,1.47-1.72,2.26-2.53s1.72-1.63,2.56-2.42c11.37,6.63,11.58,23.51-.3,32.4L73.78,200.21,63.47,212.57C51.07,204.89,51,187.49,62.2,180.18Z" fill="url(#linear-gradient)"/>
      <path id="Path_2" data-name="Path 2" d="M89.66,174.81l4.69-4.63c16.84,10.35,17,40.28.15,51.82l-4.33-5.06C103.47,201.35,103.46,189.11,89.66,174.81Z" fill="url(#linear-gradient-2)"/>
      <path id="Path_3" data-name="Path 3" d="M52.64,170,57,175c-14.06,12.76-12.53,31,.22,42.1l-4.57,4.8C36.75,211.08,34.67,183.28,52.64,170Z" fill="url(#linear-gradient-3)"/>
      <path id="Path_4" data-name="Path 4" d="M192.6,116.26a4.07,4.07,0,0,1-4.07-4.06,9.45,9.45,0,0,0-9.44-9.45H137.88a4.06,4.06,0,1,1,0-8.12h41.21a17.59,17.59,0,0,1,17.57,17.57A4.06,4.06,0,0,1,192.6,116.26Z" fill="url(#linear-gradient-4)"/>
      <path id="Path_5" data-name="Path 5" d="M69.23,122.43H13.9a13.9,13.9,0,0,1,0-27.8H69.23a4.06,4.06,0,1,1,0,8.12H13.9a5.78,5.78,0,1,0,0,11.56H69.23a4.06,4.06,0,1,1,0,8.12Z" fill="url(#linear-gradient-5)"/>
      <path id="Path_6" data-name="Path 6" d="M192.6,153a4.07,4.07,0,0,1-4.07-4.06V133a10.61,10.61,0,0,0-10.59-10.6H137.88a4.06,4.06,0,1,1,0-8.12h40.06A18.74,18.74,0,0,1,196.66,133v15.86A4.06,4.06,0,0,1,192.6,153Z" fill="url(#linear-gradient-6)"/>
      <path id="Path_7" data-name="Path 7" d="M178.74,266.78H17.92A17.94,17.94,0,0,1,0,248.86V108.53a4.07,4.07,0,0,1,8.13,0V248.86a9.81,9.81,0,0,0,9.79,9.8H178.74a9.81,9.81,0,0,0,9.79-9.8V232.41a4.07,4.07,0,0,1,8.13,0v16.45a17.94,17.94,0,0,1-17.92,17.92Z" fill="url(#linear-gradient-7)"/>
      <path id="Path_8" data-name="Path 8" d="M199.38,224.3h-40a27.06,27.06,0,0,1,0-54.12H192.6a4.06,4.06,0,1,1,0,8.12H159.38a18.94,18.94,0,0,0,0,37.87h40a2.14,2.14,0,0,0,2.15-2.14V168.46a2.52,2.52,0,0,0-2.52-2.52H192.6a4.06,4.06,0,1,1,0-8.12H199a10.65,10.65,0,0,1,10.64,10.64V214A10.28,10.28,0,0,1,199.38,224.3Z" fill="url(#linear-gradient-8)"/>
      <path id="Path_9" data-name="Path 9" d="M102.58,30.92a15.46,15.46,0,1,1,15.47-15.463A15.46,15.46,0,0,1,102.58,30.92Zm0-22.79a7.34,7.34,0,1,0,7.34,7.33,7.34,7.34,0,0,0-7.34-7.33Z" fill="url(#linear-gradient-9)"/>
      <path id="Path_10" data-name="Path 10" d="M102.58,159a4.07,4.07,0,0,1-4.06-4.07V32.28a4.07,4.07,0,1,1,8.13,0v122.6a4.07,4.07,0,0,1-4.07,4.12Z" fill="url(#linear-gradient-10)"/>
      <path id="Path_11" data-name="Path 11" d="M53.34,68A15.46,15.46,0,1,1,68.8,52.55,15.46,15.46,0,0,1,53.34,68Zm0-22.79a7.325,7.325,0,1,1,0,.01Z" fill="url(#linear-gradient-11)"/>
      <path id="Path_12" data-name="Path 12" d="M85.79,141.08A4.05,4.05,0,0,1,81.73,137V71.09L62,62.18a4.064,4.064,0,1,1,3.36-7.4l22.06,10a4.06,4.06,0,0,1,2.39,3.7V137A4.06,4.06,0,0,1,85.79,141.08Z" fill="url(#linear-gradient-12)"/>
      <path id="Path_13" data-name="Path 13" d="M142.24,46.79A15.47,15.47,0,1,1,157.7,31.323,15.47,15.47,0,0,1,142.24,46.79Zm0-22.8a7.325,7.325,0,1,1,0,.01Z" fill="url(#linear-gradient-13)"/>
      <path id="Path_14" data-name="Path 14" d="M119.65,141.08a4.06,4.06,0,0,1-4.06-4.06V63a4.09,4.09,0,0,1,.75-2.359L131.93,38.8a4.062,4.062,0,0,1,6.62,4.71L123.71,64.33V137a4.05,4.05,0,0,1-4.06,4.08Z" fill="url(#linear-gradient-14)"/>
    </g>
  </g>
</svg>
