<svg xmlns="http://www.w3.org/2000/svg" xmlns:xlink="http://www.w3.org/1999/xlink" width="416" height="416" viewBox="0 0 416 416">
  <defs>
    <linearGradient id="linear-gradient" y1="0.503" x2="1" y2="0.503" gradientUnits="objectBoundingBox">
      <stop offset="0" stop-color="#bc2340"/>
      <stop offset="1" stop-color="#581449"/>
    </linearGradient>
    <linearGradient id="linear-gradient-2" x1="0" y1="0.499" x2="1" y2="0.499" xlink:href="#linear-gradient"/>
    <linearGradient id="linear-gradient-3" x1="-0.002" y1="0.5" x2="0.998" y2="0.5" xlink:href="#linear-gradient"/>
    <linearGradient id="linear-gradient-4" x1="0" y1="0.502" x2="1" y2="0.502" xlink:href="#linear-gradient"/>
    <linearGradient id="linear-gradient-5" x1="0" y1="0.5" x2="1" y2="0.5" xlink:href="#linear-gradient"/>
    <linearGradient id="linear-gradient-6" x1="0" y1="0.5" x2="1" y2="0.5" xlink:href="#linear-gradient"/>
    <linearGradient id="linear-gradient-7" x1="0.002" y1="0.501" x2="1" y2="0.501" xlink:href="#linear-gradient"/>
    <linearGradient id="linear-gradient-8" x1="0" y1="0.5" x2="1" y2="0.5" xlink:href="#linear-gradient"/>
    <linearGradient id="linear-gradient-9" x1="0" y1="0.503" x2="1" y2="0.503" xlink:href="#linear-gradient"/>
    <linearGradient id="linear-gradient-10" x1="-0.004" y1="0.499" x2="1" y2="0.499" xlink:href="#linear-gradient"/>
    <linearGradient id="linear-gradient-11" x1="0.001" y1="0.5" x2="1.004" y2="0.5" xlink:href="#linear-gradient"/>
    <linearGradient id="linear-gradient-12" x1="0.002" y1="0.499" x2="0.995" y2="0.499" xlink:href="#linear-gradient"/>
    <linearGradient id="linear-gradient-13" x1="0.231" y1="1.171" x2="0.699" y2="-0.032" xlink:href="#linear-gradient"/>
    <linearGradient id="linear-gradient-14" x1="-0.501" y1="1.086" x2="0.551" y2="0.333" xlink:href="#linear-gradient"/>
    <linearGradient id="linear-gradient-15" x1="0.308" y1="0.766" x2="1.366" y2="0.014" xlink:href="#linear-gradient"/>
    <linearGradient id="linear-gradient-16" x1="0.263" y1="1" x2="0.73" y2="0" xlink:href="#linear-gradient"/>
    <linearGradient id="linear-gradient-17" x1="0.187" y1="0.884" x2="0.781" y2="-0.001" xlink:href="#linear-gradient"/>
    <linearGradient id="linear-gradient-18" x1="0.222" y1="1.009" x2="0.817" y2="0.122" xlink:href="#linear-gradient"/>
    <linearGradient id="linear-gradient-19" x1="1.602" y1="-0.742" x2="2.073" y2="-1.743" xlink:href="#linear-gradient"/>
    <linearGradient id="linear-gradient-20" x1="1.684" y1="-1.126" x2="2.141" y2="-2.249" xlink:href="#linear-gradient"/>
    <linearGradient id="linear-gradient-21" x1="1.461" y1="-0.676" x2="1.918" y2="-1.809" xlink:href="#linear-gradient"/>
  </defs>
  <g id="icon-2" transform="translate(99 86)">
    <circle id="Ellipse_6" data-name="Ellipse 6" cx="208" cy="208" r="208" transform="translate(-99 -86)" fill="#fff"/>
    <g id="Layer_1" data-name="Layer 1">
      <path id="Path_30" data-name="Path 30" d="M81.25,19.47H56.18a4,4,0,0,1,0-8H81.25a4,4,0,1,1,0,8Z" fill="url(#linear-gradient)"/>
      <path id="Path_31" data-name="Path 31" d="M133.44,31H4a4,4,0,0,1,0-8H133.44a4,4,0,0,1,0,8Z" fill="url(#linear-gradient-2)"/>
      <path id="Path_32" data-name="Path 32" d="M73.48,232.46H64a8.86,8.86,0,0,1-8.86-8.85v-9.54A8.86,8.86,0,0,1,64,205.22h9.53a8.87,8.87,0,0,1,8.86,8.85v9.54a8.87,8.87,0,0,1-8.91,8.85ZM64,213.19a.88.88,0,0,0-.89.88v9.54a.88.88,0,0,0,.89.88h9.53a.87.87,0,0,0,.88-.88v-9.54a.87.87,0,0,0-.88-.88Z" fill="url(#linear-gradient-3)"/>
      <path id="Path_33" data-name="Path 33" d="M133.44,202.05H4a4,4,0,0,1,0-8H133.44a4,4,0,0,1,0,8Z" fill="url(#linear-gradient-4)"/>
      <path id="Path_34" data-name="Path 34" d="M124.31,243.68H13.12A13.13,13.13,0,0,1,0,230.56V13.12A13.14,13.14,0,0,1,13.12,0H124.31a13.14,13.14,0,0,1,13.12,13.12V81.79a4,4,0,0,1-8,0V13.12A5.16,5.16,0,0,0,124.31,8H13.12A5.16,5.16,0,0,0,8,13.12V230.56a5.16,5.16,0,0,0,5.15,5.15H124.31a5.16,5.16,0,0,0,5.15-5.15V187.61a4,4,0,0,1,8,0v42.95a13.13,13.13,0,0,1-13.15,13.12Z" fill="url(#linear-gradient-5)"/>
      <path id="Path_35" data-name="Path 35" d="M62.54,129.77a43.53,43.53,0,1,1,43.53-43.527A43.53,43.53,0,0,1,62.54,129.77Zm0-79.08A35.56,35.56,0,1,0,98.1,86.25,35.56,35.56,0,0,0,62.54,50.69Z" fill="url(#linear-gradient-6)"/>
      <path id="Path_36" data-name="Path 36" d="M141,174.86a40.44,40.44,0,1,1,11.62-1.71A40.44,40.44,0,0,1,141,174.86Zm.09-72.76a32.106,32.106,0,1,0,.03,0Z" fill="url(#linear-gradient-7)"/>
      <path id="Path_37" data-name="Path 37" d="M187.55,230.09a29.47,29.47,0,1,1,10.11-1.8,29.47,29.47,0,0,1-10.11,1.8Zm0-51a7.313,7.313,0,1,1-.02.01Z" fill="url(#linear-gradient-8)"/>
      <path id="Path_38" data-name="Path 38" d="M213,243.68H20.42a4,4,0,1,1,0-8H213a4,4,0,0,1,0,8Z" fill="url(#linear-gradient-9)"/>
      <path id="Path_39" data-name="Path 39" d="M107.83,185.86a4,4,0,0,1-3.27-1.69c-20.41-29-65.84-44-66.3-44.2a4,4,0,0,1,2.47-7.58c2,.65,48.43,16.06,70.35,47.19a4,4,0,0,1-3.25,6.28Z" fill="url(#linear-gradient-10)"/>
      <path id="Path_40" data-name="Path 40" d="M178.94,92.62a4,4,0,0,1-4-4v-27a4,4,0,0,1,8,0v16a4,4,0,0,1,5.58,5.64L182,91.17A4,4,0,0,1,178.94,92.62Z" fill="url(#linear-gradient-11)"/>
      <path id="Path_41" data-name="Path 41" d="M178.94,92.62a4,4,0,0,1-3.08-1.45l-6.49-7.86A4,4,0,0,1,175,77.67v-16a4,4,0,0,1,8,0v27a4,4,0,0,1-4,4Z" fill="url(#linear-gradient-12)"/>
      <path id="Path_42" data-name="Path 42" d="M53.05,72.9c1.6,1.48,3,2.8,4.54,4.23-4.81,3.64-6.69,8.12-4.3,14.54,3.32-3.23,6.38-6.19,10.2-9.89l8.5,9.8c3-5.18,1.82-9.31-3.75-14.46.65-.73,1.28-1.49,2-2.2s1.5-1.41,2.22-2.09c9.87,5.75,10,20.4-.26,28.12L63.11,90.3l-9,10.72C43.4,94.36,43.36,79.24,53.05,72.9Z" fill="url(#linear-gradient-13)"/>
      <path id="Path_43" data-name="Path 43" d="M76.9,68.24l4.08-4c14.62,9,14.73,35,.12,45l-3.75-4.39C88.89,91.28,88.89,80.65,76.9,68.24Z" fill="url(#linear-gradient-14)"/>
      <path id="Path_44" data-name="Path 44" d="M44.76,64.09l3.8,4.32c-12.21,11.08-10.88,26.88.2,36.56l-4,4.16C31,99.73,29.15,75.6,44.76,64.09Z" fill="url(#linear-gradient-15)"/>
      <path id="Path_45" data-name="Path 45" d="M139.7,120.33c.51,1.89,1,3.57,1.46,5.39-5.4.49-9,3-10.2,9.06l12.49-2.71c.63,4,1.23,7.67,1.84,11.53,4.74-2.54,5.82-6.25,4-12.83.84-.25,1.69-.54,2.55-.75s1.81-.37,2.69-.54c4.81,9.08-2,20.37-13.56,21.36-.57-3.8-1.16-7.73-1.86-12.44l-11.93,3.94C122.13,132.13,129.28,120.57,139.7,120.33Z" fill="url(#linear-gradient-16)"/>
      <path id="Path_46" data-name="Path 46" d="M160.14,128.1l5-1.14c6.9,13.82-5.36,33.72-21.28,34.44l-.79-5.14C158.35,151.4,163.39,143.28,160.14,128.1Z" fill="url(#linear-gradient-17)"/>
      <path id="Path_47" data-name="Path 47" d="M137.55,109.66l.85,5.1c-14.59,2.67-21.08,15.37-17.22,28l-5,1.29C110.08,130.33,120.16,111,137.55,109.66Z" fill="url(#linear-gradient-18)"/>
      <path id="Path_48" data-name="Path 48" d="M190.62,190.77l-.21,3.7c-3.51-.83-6.29,0-8.34,3.55l8.44.94-1.28,7.64c3.52-.6,5-2.71,5.23-7.23a14.965,14.965,0,0,1,1.77.07c.59.07,1.22.15,1.81.23,1.1,6.73-5.58,12.39-13.06,10.58l1.46-8.23h-8.35C177.06,194.49,184,188.71,190.62,190.77Z" fill="url(#linear-gradient-19)"/>
      <path id="Path_49" data-name="Path 49" d="M201.85,200l3.4.35c1.43,10.15-10.5,20.09-20.68,17.18l.6-3.4C195.8,214.27,200.69,210.23,201.85,200Z" fill="url(#linear-gradient-20)"/>
      <path id="Path_50" data-name="Path 50" d="M191.53,183.59,191,187c-9.75-1.41-16.52,5.22-16.76,14l-3.43-.24C169.86,190.8,180.29,180.78,191.53,183.59Z" fill="url(#linear-gradient-21)"/>
    </g>
  </g>
</svg>
