<svg id="w-icon-4" xmlns="http://www.w3.org/2000/svg" xmlns:xlink="http://www.w3.org/1999/xlink" width="270.824" height="270.8" viewBox="0 0 270.824 270.8">
  <defs>
    <linearGradient id="linear-gradient" y1="0.5" x2="1" y2="0.5" gradientUnits="objectBoundingBox">
      <stop offset="0" stop-color="#bc2340"/>
      <stop offset="1" stop-color="#581449"/>
    </linearGradient>
    <linearGradient id="linear-gradient-2" x1="0" y1="0.504" x2="1" y2="0.504" xlink:href="#linear-gradient"/>
    <linearGradient id="linear-gradient-3" x1="0" y1="0.5" x2="1" y2="0.5" xlink:href="#linear-gradient"/>
    <linearGradient id="linear-gradient-4" x1="0" y1="0.501" x2="0.999" y2="0.501" xlink:href="#linear-gradient"/>
    <linearGradient id="linear-gradient-5" x1="0.001" y1="0.501" x2="1" y2="0.501" xlink:href="#linear-gradient"/>
  </defs>
  <g id="Layer_1" data-name="Layer 1" transform="translate(0 0)">
    <path id="Path_142" data-name="Path 142" d="M31.406,205.19a13.1,13.1,0,1,0,13.1,13.1,13.1,13.1,0,0,0-13.1-13.1Zm0,17.441a4.357,4.357,0,1,1,3.1-1.263,4.369,4.369,0,0,1-3.1,1.263Z" transform="translate(3.81 39.418)" fill="url(#linear-gradient)"/>
    <path id="Path_143" data-name="Path 143" d="M11.18,199.431l6.167,6.167a21.811,21.811,0,0,1,30.835,0l6.179-6.167a30.537,30.537,0,0,0-43.181,0Z" transform="translate(2.451 36.617)" fill="url(#linear-gradient-2)"/>
    <path id="Path_144" data-name="Path 144" d="M.81,189.928l6.179,6.167a39.288,39.288,0,0,1,55.527,0l6.167-6.167a48.026,48.026,0,0,0-67.873,0Z" transform="translate(0.476 33.834)" fill="url(#linear-gradient-3)"/>
    <path id="Path_145" data-name="Path 145" d="M220.886,209.382h-8.715V191.929h-8.727v17.453h-8.727v-8.727h-8.727v8.727h-8.727V183.19H168.55v34.895h52.384Z" transform="translate(32.437 35.226)" fill="url(#linear-gradient-4)"/>
    <path id="Path_146" data-name="Path 146" d="M257.423,104.748H222.528a13.1,13.1,0,0,0-13.1,13.1v13.1h-17.7a56.289,56.289,0,0,0-13.465-32.478l41.669-41.669h33.085A17.453,17.453,0,0,0,257.1,22.374a26.192,26.192,0,0,0-51.777,0,17.394,17.394,0,0,0,2.441,34.252L172.049,92.342a56.36,56.36,0,0,0-32.49-13.465V61.126h13.1a13.1,13.1,0,0,0,13.1-13.1V13.147a13.1,13.1,0,0,0-13.1-13.1H117.832a13.1,13.1,0,0,0-13.1,13.1V48.03a13.1,13.1,0,0,0,13.1,13.1h13.1V78.794a56.289,56.289,0,0,0-32.49,13.465l-21-21a43.8,43.8,0,1,0-6.179,6.179l21,21a56.289,56.289,0,0,0-13.465,32.478H61.126v-13.1a13.1,13.1,0,0,0-13.1-13.1H13.147a13.1,13.1,0,0,0-13.1,13.1v34.895a13.1,13.1,0,0,0,13.1,13.1H48.03a13.1,13.1,0,0,0,13.1-13.1v-13.1H78.794a56.36,56.36,0,0,0,13.465,32.49L62.4,201.991l6.167,6.167L98.426,178.3a56.36,56.36,0,0,0,32.49,13.429V209.4h-13.1a13.1,13.1,0,0,0-13.1,13.1v34.895a13.1,13.1,0,0,0,13.1,13.1h34.895a13.1,13.1,0,0,0,13.1-13.1V222.528a13.1,13.1,0,0,0-13.1-13.1h-13.1v-17.7a56.36,56.36,0,0,0,32.49-13.465l22.62,22.62a13.1,13.1,0,0,0-11.441,12.929v43.621a13.1,13.1,0,0,0,13.1,13.1h61.075a13.1,13.1,0,0,0,13.1-13.1V213.8a13.1,13.1,0,0,0-13.1-13.1H206.884l-28.573-28.573a56.36,56.36,0,0,0,13.417-32.49H209.4v13.1a13.1,13.1,0,0,0,13.1,13.1h34.895a13.1,13.1,0,0,0,13.1-13.1V117.832a13.1,13.1,0,0,0-13.1-13.1ZM157.1,34.946H113.462v-8.7H157.1ZM117.808,8.754H152.7a4.369,4.369,0,0,1,4.393,4.393v4.369H113.462V13.147a4.369,4.369,0,0,1,4.369-4.369Zm-4.369,39.288V43.673h43.633V48.03a4.381,4.381,0,0,1-4.345,4.405H117.832a4.381,4.381,0,0,1-4.369-4.405ZM13.147,113.462H48.03a4.369,4.369,0,0,1,4.405,4.369v4.357H8.778v-4.357a4.369,4.369,0,0,1,4.369-4.369Zm39.288,17.453v8.727H8.778v-8.727Zm-4.369,26.192H13.147a4.369,4.369,0,0,1-4.357-4.369v-4.357H52.435v4.357A4.369,4.369,0,0,1,48.03,157.1Zm65.48,78.576h43.633v8.727H113.462Zm39.288,26.192h-35a4.369,4.369,0,0,1-4.369-4.357v-4.369H157.1v4.369a4.369,4.369,0,0,1-4.369,4.262Zm4.369-39.288v4.357h-43.74v-4.357a4.381,4.381,0,0,1,4.369-4.369h34.895a4.381,4.381,0,0,1,4.369,4.31ZM135.392,183.3c-4.691,0-9.691-6.667-13.1-17.453h26.192C145.047,176.632,140.047,183.3,135.392,183.3Zm-15.358-26.192a108.768,108.768,0,0,1-2.119-17.465h34.7a108.769,108.769,0,0,1-2,17.453ZM87.52,139.642H109.2a120.782,120.782,0,0,0,1.786,17.453H92.592a47.622,47.622,0,0,1-5.072-17.453Zm47.765-52.384c4.679,0,9.679,6.667,13.1,17.453H122.189C125.63,93.926,130.63,87.259,135.285,87.259Zm15.346,26.192a108.768,108.768,0,0,1,2,17.453H117.915a108.768,108.768,0,0,1,2-17.453ZM109.2,130.9H87.52a47.622,47.622,0,0,1,5.072-17.453h18.394A120.779,120.779,0,0,0,109.2,130.9Zm52.158,8.727h21.68a47.4,47.4,0,0,1-5.072,17.453H159.584a120.782,120.782,0,0,0,1.774-17.441Zm0-8.727a120.777,120.777,0,0,0-1.774-17.441h18.394a47.621,47.621,0,0,1,5.072,17.453Zm39.359-91.564a8.727,8.727,0,0,1,8.715-8.727H213.8V26.243a17.453,17.453,0,0,1,34.526-3.7,17.489,17.489,0,0,0-12.715,16.8h8.727a8.727,8.727,0,1,1,8.715,8.715H209.432a8.715,8.715,0,0,1-8.715-8.715Zm-28.454,65.48H157.548a59.622,59.622,0,0,0-6.06-14.644,48.145,48.145,0,0,1,20.775,14.572ZM119.105,90.175a60.1,60.1,0,0,0-6.072,14.572H98.295A48.11,48.11,0,0,1,119.105,90.175ZM43.673,8.778A34.942,34.942,0,0,1,78.627,43.673a34.526,34.526,0,0,1-4.762,17.537A35.121,35.121,0,0,0,56.757,46.375a17.453,17.453,0,1,0-26.192,0A35.157,35.157,0,0,0,13.552,61.209,34.526,34.526,0,0,1,8.79,43.673,34.942,34.942,0,0,1,43.673,8.778ZM34.946,34.97a8.737,8.737,0,1,0,0-.024ZM19.469,68.805a26.037,26.037,0,0,1,48.36,0,34.764,34.764,0,0,1-48.36,0Zm78.8,97.029H113.01a59.622,59.622,0,0,0,6.1,14.548A48.05,48.05,0,0,1,98.295,165.81Zm53.181,14.572a60.1,60.1,0,0,0,6.072-14.572h14.715a48.014,48.014,0,0,1-20.763,14.548Zm110.3,33.418v43.621A4.357,4.357,0,0,1,257.4,261.8H196.324a4.357,4.357,0,0,1-4.357-4.357V213.8a4.369,4.369,0,0,1,4.357-4.369H257.4a4.369,4.369,0,0,1,4.381,4.369ZM222.468,113.486h34.895a4.369,4.369,0,0,1,4.357,4.369v4.357H218.158v-4.381a4.369,4.369,0,0,1,4.369-4.369Zm39.288,17.453v8.727h-43.6v-8.727ZM257.4,157.131H222.528a4.369,4.369,0,0,1-4.369-4.369V148.4H261.78v4.357a4.369,4.369,0,0,1-4.357,4.334Z" transform="translate(0.27 0.27)" fill="url(#linear-gradient-5)"/>
  </g>
</svg>
