<svg id="w-icon-2" xmlns="http://www.w3.org/2000/svg" xmlns:xlink="http://www.w3.org/1999/xlink" width="265.669" height="263.967" viewBox="0 0 265.669 263.967">
  <defs>
    <linearGradient id="linear-gradient" y1="0.5" x2="1" y2="0.5" gradientUnits="objectBoundingBox">
      <stop offset="0" stop-color="#bc2340"/>
      <stop offset="1" stop-color="#581449"/>
    </linearGradient>
    <linearGradient id="linear-gradient-2" y1="0.5" x2="0.999" y2="0.5" xlink:href="#linear-gradient"/>
    <linearGradient id="linear-gradient-3" y1="0.5" x2="1" y2="0.5" xlink:href="#linear-gradient"/>
    <linearGradient id="linear-gradient-5" y1="0.5" x2="0.999" y2="0.5" xlink:href="#linear-gradient"/>
    <linearGradient id="linear-gradient-6" x1="0.004" y1="0.5" x2="1.001" y2="0.5" xlink:href="#linear-gradient"/>
    <linearGradient id="linear-gradient-7" y1="0.5" x2="1" y2="0.5" xlink:href="#linear-gradient"/>
  </defs>
  <g id="Layer_1" data-name="Layer 1">
    <path id="Path_147" data-name="Path 147" d="M260.1,35.79H60.872a5.536,5.536,0,0,0-5.536,5.536V52.4H38.74A5.536,5.536,0,0,0,33.2,57.922v45.324c-13.167,4.488-22.132,11.679-22.132,21.084v22.144A14.025,14.025,0,0,0,12.263,152C2.441,157.535,0,163.952,0,168.607v22.132c0,10.632,11.513,18.322,27.668,22.8v15.941c0,18.144,33.2,27.668,66.408,27.668s66.408-9.524,66.408-27.668V207.347c0-9.8-9.858-17.775-27.668-22.751v-4.929H237.953a5.536,5.536,0,0,0,5.536-5.524V157.535H260.1A5.536,5.536,0,0,0,265.622,152V41.278A5.536,5.536,0,0,0,260.1,35.79ZM44.276,63.422h11.06v34.74a107.873,107.873,0,0,0-11.06,1.988Zm33.192,44.312c33.2,0,55.348,10.012,55.348,16.6S110.673,141,77.468,141s-55.336-10.024-55.336-16.668S44.276,107.734,77.468,107.734Zm51.193-1.607a33.5,33.5,0,1,1,15.215,19.2v-1C143.877,116.7,137.96,110.6,128.662,106.127ZM22.132,140.272C34.692,148.022,56.11,152,77.48,152s42.776-3.976,55.336-11.727v6.2c0,6.584-22.144,16.6-55.336,16.6s-55.348-10.012-55.348-16.6ZM19.477,160.63c12.013,8.917,35.085,13.513,58,13.513a139.531,139.531,0,0,0,44.264-6.477,3.119,3.119,0,0,1,0,.941c0,6.584-22.132,16.6-55.336,16.6s-55.336-10.012-55.336-16.6c0-2,2.655-5.036,8.405-7.977Zm-8.405,30.109v-6.2c12.56,7.75,33.978,11.739,55.336,11.739s42.776-3.988,55.336-11.727v6.191c0,6.584-22.132,16.608-55.336,16.608S11.072,197.323,11.072,190.739Zm138.341,38.74c0,6.584-22.132,16.6-55.336,16.6s-55.336-10.024-55.336-16.6v-6.2c12.56,7.75,33.978,11.739,55.336,11.739s42.776-3.988,55.336-11.739Zm0-22.132c0,6.584-22.132,16.6-55.336,16.6a125.387,125.387,0,0,1-40.728-6.036c4.31.333,8.691.5,13.1.5,29.764,0,59.872-7.8,65.408-22.692,12.751,3.929,17.56,8.917,17.56,11.632Zm83-38.74h-99.6a14.513,14.513,0,0,0-1.191-5.536,32.145,32.145,0,0,0,7.31-5.536h93.457Zm22.144-22.132H143.841v-8.917a44.24,44.24,0,1,0-27.632-40.9,45.488,45.488,0,0,0,.333,4.929,147.151,147.151,0,0,0-39.074-4.929,103.573,103.573,0,0,0-11.06.393V46.862H254.514v99.613Z" transform="translate(0 6.819)" fill="url(#linear-gradient)"/>
    <path id="Path_148" data-name="Path 148" d="M224.446,182.548a16.668,16.668,0,0,1-16.608,16.6H176.884l12.667-12.667-7.75-7.81L159.669,200.8a5.524,5.524,0,0,0,0,7.81L181.8,230.741l7.8-7.8-12.667-12.727h30.954a27.668,27.668,0,0,0,27.668-27.668V165.94h-11.06Z" transform="translate(30.115 31.618)" fill="url(#linear-gradient-2)"/>
    <path id="Path_149" data-name="Path 149" d="M11.072,48.145a16.668,16.668,0,0,1,16.6-16.608H41.955L29.275,44.217l7.858,7.858L59.265,29.942a5.548,5.548,0,0,0,0-7.81L37.133,0,29.275,7.8,42,20.477H27.716A27.668,27.668,0,0,0,0,48.145v33.2H11.072Z" fill="url(#linear-gradient-3)"/>
    <rect id="Rectangle_11" data-name="Rectangle 11" width="11.072" height="11.072" transform="translate(0 92.41)" fill="url(#linear-gradient)"/>
    <rect id="Rectangle_12" data-name="Rectangle 12" width="11.072" height="11.072" transform="translate(254.561 175.426)" fill="url(#linear-gradient-5)"/>
    <path id="Path_150" data-name="Path 150" d="M71.5,60.764H82.552V49.74H65.884a5.524,5.524,0,0,0-5.524,5.524V71.872H71.42Z" transform="translate(11.501 9.477)" fill="url(#linear-gradient-6)"/>
    <path id="Path_151" data-name="Path 151" d="M201.64,71.872h11.072V55.264a5.536,5.536,0,0,0-5.536-5.524h-16.6V60.764h11.06V71.836Z" transform="translate(36.313 9.477)" fill="url(#linear-gradient-7)"/>
    <path id="Path_152" data-name="Path 152" d="M212.712,122.118V105.51H201.64v11.072H190.58v11.072h16.6A5.536,5.536,0,0,0,212.712,122.118Z" transform="translate(36.313 20.104)" fill="url(#linear-gradient)"/>
  </g>
</svg>
