<svg xmlns="http://www.w3.org/2000/svg" xmlns:xlink="http://www.w3.org/1999/xlink" viewBox="0 0 244.2 244.2"><defs><style>.cls-1{fill:url(#linear-gradient);}.cls-2{fill:url(#linear-gradient-2);}.cls-3{fill:url(#linear-gradient-3);}.cls-4{fill:url(#linear-gradient-4);}.cls-5{fill:url(#linear-gradient-5);}.cls-6{fill:url(#linear-gradient-6);}.cls-7{fill:url(#linear-gradient-7);}.cls-8{fill:url(#linear-gradient-8);}.cls-9{fill:url(#linear-gradient-9);}.cls-10{fill:url(#linear-gradient-10);}.cls-11{fill:url(#linear-gradient-11);}.cls-12{fill:url(#linear-gradient-12);}.cls-13{fill:url(#linear-gradient-13);}.cls-14{fill:url(#linear-gradient-14);}.cls-15{fill:url(#linear-gradient-15);}</style><linearGradient id="linear-gradient" x1="173.3" y1="19.69" x2="196.94" y2="19.69" gradientUnits="userSpaceOnUse"><stop offset="0" stop-color="#bc2340"/><stop offset="1" stop-color="#581449"/></linearGradient><linearGradient id="linear-gradient-2" x1="157.55" y1="19.69" x2="165.43" y2="19.69" xlink:href="#linear-gradient"/><linearGradient id="linear-gradient-3" x1="126.04" y1="216.63" x2="151.3" y2="216.63" xlink:href="#linear-gradient"/><linearGradient id="linear-gradient-4" x1="165.43" y1="216.63" x2="189.06" y2="216.63" xlink:href="#linear-gradient"/><linearGradient id="linear-gradient-5" x1="203.18" y1="216.63" x2="228.45" y2="216.63" xlink:href="#linear-gradient"/><linearGradient id="linear-gradient-6" x1="0" y1="122.1" x2="244.2" y2="122.1" xlink:href="#linear-gradient"/><linearGradient id="linear-gradient-7" x1="220.57" y1="177.24" x2="228.45" y2="177.24" xlink:href="#linear-gradient"/><linearGradient id="linear-gradient-8" x1="220.57" y1="161.49" x2="228.45" y2="161.49" xlink:href="#linear-gradient"/><linearGradient id="linear-gradient-9" x1="220.57" y1="145.73" x2="228.45" y2="145.73" xlink:href="#linear-gradient"/><linearGradient id="linear-gradient-10" x1="29.03" y1="169.36" x2="62.43" y2="169.36" xlink:href="#linear-gradient"/><linearGradient id="linear-gradient-11" x1="23.97" y1="73.89" x2="62.44" y2="73.89" xlink:href="#linear-gradient"/><linearGradient id="linear-gradient-12" x1="23.97" y1="45.71" x2="62.44" y2="45.71" xlink:href="#linear-gradient"/><linearGradient id="linear-gradient-13" x1="129.26" y1="133.39" x2="144.7" y2="100.47" xlink:href="#linear-gradient"/><linearGradient id="linear-gradient-14" x1="144.38" y1="140.48" x2="159.81" y2="107.56" xlink:href="#linear-gradient"/><linearGradient id="linear-gradient-15" x1="114.32" y1="126.39" x2="129.75" y2="93.47" xlink:href="#linear-gradient"/></defs><g id="Layer_2" data-name="Layer 2"><g id="Layer_1-2" data-name="Layer 1"><path class="cls-1" d="M173.3,15.75h23.64v7.88H173.3Z"/><path class="cls-2" d="M157.55,15.75h7.88v7.88h-7.88Z"/><path class="cls-3" d="M136.22,204.81h-2.3a7.89,7.89,0,0,0-7.88,7.88v7.88a7.89,7.89,0,0,0,7.88,7.88h2.3a7.81,7.81,0,0,0,5.57-2.31l9.51-9.51-9.51-9.51A7.81,7.81,0,0,0,136.22,204.81Zm0,15.76h-2.3v-7.88h2.3l3.94,3.94Z"/><path class="cls-4" d="M181.18,204.81H173.3a7.89,7.89,0,0,0-7.87,7.88v7.88a7.89,7.89,0,0,0,7.87,7.88h7.88a7.89,7.89,0,0,0,7.88-7.88v-7.88A7.89,7.89,0,0,0,181.18,204.81Zm-7.88,15.76v-7.88h7.88v7.88Z"/><path class="cls-5" d="M220.57,204.81h-2.31a7.83,7.83,0,0,0-5.57,2.31l-9.51,9.51,9.51,9.51a7.83,7.83,0,0,0,5.57,2.31h2.31a7.9,7.9,0,0,0,7.88-7.88v-7.88A7.9,7.9,0,0,0,220.57,204.81Zm-2.31,15.76-3.94-3.94,3.94-3.94h2.31v7.88Z"/><path class="cls-6" d="M224.51,0H130a19.72,19.72,0,0,0-19.7,19.69V80.83a43.9,43.9,0,0,0-4.73,4.62l-21-13.12a43.32,43.32,0,1,0-45.17,29.88v24a43.34,43.34,0,1,0,45.17,29.87l21-13.12a44,44,0,0,0,4.73,4.63v76.89A19.71,19.71,0,0,0,130,244.2H224.5a19.72,19.72,0,0,0,19.7-19.69V19.69A19.71,19.71,0,0,0,224.51,0ZM130,7.88h94.53a11.83,11.83,0,0,1,11.81,11.81V31.51H118.16V19.69A11.83,11.83,0,0,1,130,7.88Zm35.45,139.74a43.28,43.28,0,0,0,0-66.79V63h23.63V165.43H165.43Zm7.87-33.4a35.45,35.45,0,1,1-35.45-35.45A35.49,35.49,0,0,1,173.3,114.22ZM7.88,59.08A35.45,35.45,0,1,1,43.33,94.53,35.49,35.49,0,0,1,7.88,59.08ZM43.33,204.81a35.45,35.45,0,1,1,35.44-35.45A35.49,35.49,0,0,1,43.33,204.81Zm38.11-56a43.4,43.4,0,0,0-34.18-22.54v-24A43.4,43.4,0,0,0,81.44,79.67L100.85,91.8a42.94,42.94,0,0,0,0,44.85Zm56.41,8.77a43.1,43.1,0,0,0,19.7-4.78V173.3h39.39V55.14H157.55V75.68a43,43,0,0,0-39.39,0V39.39H236.32V189.06H118.16V152.77A43.09,43.09,0,0,0,137.85,157.55Zm86.66,78.77H130a11.83,11.83,0,0,1-11.82-11.81V196.94H236.32v27.57A11.83,11.83,0,0,1,224.51,236.32Z"/><path class="cls-7" d="M220.57,173.3h7.88v7.88h-7.88Z"/><path class="cls-8" d="M220.57,157.55h7.88v7.88h-7.88Z"/><path class="cls-9" d="M220.57,141.79h7.88v7.88h-7.88Z"/><path class="cls-10" d="M57.58,167.16a9,9,0,0,0,2.07-5.69v-.91a9.39,9.39,0,0,0-8.35-9.17v-2.9a2.79,2.79,0,1,0-5.57,0v2.78H40.16v-2.78a2.78,2.78,0,1,0-5.56,0v2.78H31.81a2.79,2.79,0,0,0,0,5.57H50.06a3.88,3.88,0,0,1,4,3.72v.91a3.88,3.88,0,0,1-4,3.72h-9.9a2.78,2.78,0,1,0-5.56,0v11.13a2.78,2.78,0,1,0,5.56,0v-5.56h11a5.55,5.55,0,0,1,5.75,5.31v.51a5.55,5.55,0,0,1-5.75,5.31H31.81a2.79,2.79,0,0,0,0,5.57H34.6v2.78a2.78,2.78,0,1,0,5.56,0v-2.78h5.57v2.78a2.79,2.79,0,1,0,5.57,0v-2.8a11.09,11.09,0,0,0,11.13-10.86v-.51A10.71,10.71,0,0,0,57.58,167.16Z"/><path class="cls-11" d="M43.23,87.94a1.77,1.77,0,0,1-1.44-.74L24.31,62.94a1.77,1.77,0,0,1,2.07-2.69l17.3,6.68L60,60a1.77,1.77,0,0,1,2.14,2.66L44.68,87.19a1.76,1.76,0,0,1-1.44.75ZM30.67,65.71,43.22,83.12l12.36-17.4L44.41,70.48a1.78,1.78,0,0,1-1.34,0Z"/><path class="cls-12" d="M25.75,63.05a1.82,1.82,0,0,1-1.38-.65,1.77,1.77,0,0,1-.17-2L41.64,29.28a1.77,1.77,0,0,1,3.09,0L62.21,60.11a1.8,1.8,0,0,1-.17,2,1.78,1.78,0,0,1-1.94.55L44,57.23,26.29,63A1.7,1.7,0,0,1,25.75,63.05Zm17.44-29.3L29.5,58.19l14-4.51a1.72,1.72,0,0,1,1.12,0l12.24,4.13Z"/><path class="cls-13" d="M128.58,101.42l4.41,4.1c-4.68,3.54-6.51,7.89-4.19,14.13l9.91-9.61,8.26,9.52c2.9-5,1.76-9-3.64-14,.63-.71,1.24-1.46,1.91-2.14s1.45-1.37,2.16-2c9.58,5.59,9.76,19.83-.26,27.32l-8.8-10.35c-3.37,4-6.11,7.34-8.69,10.42C119.2,122.26,119.16,107.58,128.58,101.42Z"/><path class="cls-14" d="M151.74,96.89l3.95-3.9c14.2,8.72,14.31,34,.13,43.69l-3.65-4.26C163.38,119.27,163.38,109,151.74,96.89Z"/><path class="cls-15" d="M120.52,92.86l3.69,4.2c-11.86,10.76-10.56,26.1.19,35.5l-3.85,4.05C107.12,127.48,105.36,104,120.52,92.86Z"/></g></g></svg>